<svg id="Capa_1" enable-background="new 0 0 512 512" height="512" viewBox="0 0 512 512" width="512" xmlns="http://www.w3.org/2000/svg"><g><path d="m117.493 354.459h-40.089v-76.066l40.089-15.547z" fill="#fff"/><path d="m313.197 340.104c-28.755 0-151.393-91.303-151.393-91.303-15.656-15.644 22.967-45.8 38.623-61.444s31.419-22.749 47.074-7.104l65.695 63.139 47.964-47.929c7.518-7.513 17.715-11.733 28.347-11.733s20.829 4.221 28.347 11.733l73.831 73.777c15.656 15.644 15.656 41.008 0 56.653-15.656 15.644-41.038 15.644-56.694 0l-45.484-45.45-47.964 47.929c-7.517 7.512-17.714 11.732-28.346 11.732z" fill="#ff5959"/><path d="m202.025 169.447-84.275-23.286-.257-99.661 122.886 49.88z" fill="#ff5959"/><path d="m212.782 196.223 63.14-29.043-66.33-11.905c-5.529-27.483-29.817-48.185-58.949-48.185-26.18 0-48.442 16.724-56.698 40.06h-63.568c-11.07 0-20.045 8.968-20.045 20.03v55.082l27.887-15.426 50.287 30.449s-69.24 37.859-72.303 40.919c-7.828 7.822-7.828 26.513 0 34.335 10.398 10.391 28.347 4.006 28.347 4.006l101.082-49.215 65.145 45.067-20.045-71.106 50.111-7.01z" fill="#ffda8f"/><g><path d="m167.396 142.24c-10.02-6.723-23.484-6.723-33.504 0-4.593 3.082-5.813 9.295-2.725 13.878 3.089 4.583 9.318 5.801 13.91 2.718 3.277-2.199 7.857-2.199 11.134 0 1.716 1.151 3.661 1.703 5.584 1.703 3.225 0 6.391-1.55 8.326-4.421 3.088-4.582 1.869-10.796-2.725-13.878z"/><ellipse cx="489.663" cy="267.24" rx="9.995" ry="10"/><path d="m504.64 298.51c-.862-.24-1.754-.36-2.635-.36-4.51 0-8.479 3.03-9.662 7.37-1.393 5.08-4.009 9.56-7.747 13.31-5.673 5.66-13.23 8.78-21.257 8.8-8.038-.02-15.584-3.14-21.257-8.8l-38.596-38.57 10.003-10.537c3.806-4.01 3.635-10.339-.384-14.137-4.019-3.797-10.363-3.625-14.168.383l-64.484 65.341c-5.682 5.67-13.229 8.8-21.257 8.8-1.052.1-5.593-.92-10.964-3.18-9.121-3.72-22.249-10.74-37.954-20.31-18.673-11.356-38.854-24.941-54.882-36.064l-5.906-20.952 38.748-5.421c3.495-.489 6.475-2.776 7.845-6.022s.928-6.971-1.164-9.808l-20.78-28.182 17.361-7.986 74.204 70.925c1.932 1.796 4.384 2.685 6.831 2.685 2.683 0 5.36-1.069 7.334-3.182 3.774-4.04 3.551-10.368-.498-14.133l-5.748-5.345 40.627-40.605c5.683-5.68 13.229-8.8 21.257-8.8 8.027 0 15.575 3.12 21.257 8.8l39.969 39.93c1.894 1.9 4.409 2.94 7.086 2.94 2.676 0 5.191-1.04 7.085-2.92 1.895-1.89 2.937-4.4 2.937-7.07.01-2.67-1.032-5.19-2.927-7.08l-39.969-39.93c-4.671-4.68-10.143-8.33-16.256-10.86s-12.568-3.81-19.182-3.81c-6.615 0-13.069 1.28-19.183 3.81-6.103 2.53-11.576 6.18-16.256 10.86l-41.011 40.97-48.034-46.164 15.098-6.945c3.974-1.828 6.3-6.017 5.746-10.348-.555-4.331-3.861-7.802-8.168-8.575l-53.008-9.514 24.567-46.804c1.31-2.498 1.504-5.431.533-8.078-.972-2.647-3.018-4.762-5.635-5.824l-122.885-49.88c-3.097-1.257-6.614-.89-9.382.973-2.769 1.864-4.426 4.982-4.417 8.316l.168 65.292c-8.559 6.631-15.61 15.211-20.389 25.181h-56.874c-16.579 0-30.377 13.621-30.377 30.18v55.083c0 3.542 2.032 6.819 5.091 8.617 3.058 1.796 6.92 1.845 10.024.129l22.839-12.613 30.519 18.468c-5.872 3.235-12.85 7.097-19.862 11-36.608 20.374-38.079 21.849-39.505 23.274-11.786 11.777-11.783 36.69.002 48.467 5.814 5.81 13.887 8.881 23.346 8.881 8.138 0 14.736-2.263 15.462-2.521.35-.125.488-.27.823-.432l18.229-8.976v37.903c0 5.523 4.901 9.541 10.436 9.541h9.554v101.5c0 5.523 4.961 10 10.495 10 5.535 0 10.495-4.477 10.495-10v-101.501h9.545c5.535 0 10.446-4.018 10.446-9.541v-67.182l17.022-8.391 60.212 41.728c3.475 2.404 8.035 2.374 11.477-.075s4.947-6.79 3.803-10.85l-2.587-9.129c1.098.737 2.185 1.473 3.291 2.21 20.115 13.4 37.41 24.11 51.41 31.82 8.61 4.74 15.938 8.29 22.172 10.85 2.928 1.162 5.118 2.119 8.117 2.867v117.193c0 5.523 4.461 10 9.995 10 5.535 0 9.995-4.477 9.995-10v-116.308c2.999-.636 6.462-1.6 9.608-2.902 6.113-2.53 11.547-6.18 16.217-10.85l40.852-40.85 38.385 38.37c4.77 4.76 10.23 8.645 16.454 11.175 2.777 1.127 5.424 2.025 8.422 2.679v118.686c0 5.523 4.461 10 9.995 10s9.995-4.477 9.995-10v-118.531c2.999-.661 6.32-1.622 9.309-2.834 6.224-2.53 11.859-6.312 16.629-11.082 6.164-6.15 10.656-13.866 12.93-22.216 1.455-5.321-1.671-10.877-7.002-12.327zm-377.086-237.131 98.827 40.114-15.565 29.653c-12.412-20.621-35.046-34.131-60.172-34.131-7.976 0-15.724 1.379-22.989 3.918zm-19.605 282.621h-20.99v-37.204l20.99-9.76zm43.395-84.889c-2.981-2.062-6.844-2.355-10.106-.769l-100.436 48.902c-1.172.349-4.543 1.242-8.346 1.242-4.078 0-7.16-1.013-9.161-3.013-3.761-3.759-3.87-15.619-.326-19.847 5.399-3.67 39.816-22.875 70.354-39.572 3.141-1.717 5.125-4.976 5.204-8.549.078-3.573-1.759-6.916-4.821-8.77l-50.286-30.449c-3.075-1.863-7.097-1.937-10.241-.197l-13.188 7.194v-38.103c0-5.53 4.861-10.18 10.387-10.18h63.569c4.249 0 8.036-2.598 9.451-6.596 7.066-19.971 26.053-33.351 47.248-33.351 23.783 0 44.442 16.905 49.122 40.171.809 4.025 4.003 7.157 8.052 7.884l34.996 6.286-34.227 15.746c-2.735 1.258-4.758 3.677-5.509 6.587-.752 2.91-.152 6.003 1.633 8.423l18.107 24.555-33.475 4.683c-2.865.401-5.416 2.018-6.999 4.435-1.582 2.417-2.041 5.397-1.257 8.176l12.497 44.334z"/></g></g></svg>