<?xml version="1.0" encoding="iso-8859-1"?>
<!-- Generator: Adobe Illustrator 19.0.0, SVG Export Plug-In . SVG Version: 6.00 Build 0)  -->
<svg version="1.1" id="Capa_1" xmlns="http://www.w3.org/2000/svg" xmlns:xlink="http://www.w3.org/1999/xlink" x="0px" y="0px"
	 viewBox="0 0 512 512" style="enable-background:new 0 0 512 512;" xml:space="preserve">
<circle style="fill:#FFFFFF;" cx="334.43" cy="402.148" r="99.997"/>
<path style="fill:#A0E070;" d="M379.895,356.663l24.181-24.181l1.118-0.981c-18.1-18.128-43.122-29.345-70.764-29.345
	c-0.027,0-0.055,0.001-0.082,0.001v35.684c0.028,0,0.055-0.002,0.082-0.002C352.185,337.837,368.258,345.031,379.895,356.663z"/>
<g>
	<path style="fill:#F75857;" d="M288.83,447.64l-24.181,24.181l-1.118,0.981c18.1,18.128,43.122,29.345,70.764,29.345
		c0.027,0,0.055-0.001,0.082-0.001v-35.684c-0.028,0-0.055,0.002-0.082,0.002C316.541,466.465,300.468,459.272,288.83,447.64z"/>
	<path style="fill:#F75857;" d="M379.92,447.615l24.181,24.181l0.981,1.118c18.128-18.1,29.345-43.122,29.345-70.764
		c0-0.027-0.001-0.055-0.001-0.082h-35.684c0,0.028,0.002,0.055,0.002,0.082C398.746,419.905,391.552,435.977,379.92,447.615z"/>
	<path style="fill:#F75857;" d="M288.805,356.688l-24.181-24.181l-0.981-1.118c-18.128,18.1-29.345,43.122-29.345,70.764
		c0,0.027,0.001,0.055,0.001,0.082h35.684c0-0.028-0.002-0.055-0.002-0.082C269.981,384.398,277.174,368.325,288.805,356.688z"/>
	<circle style="fill:#F75857;" cx="334.3" cy="402.148" r="64.318"/>
</g>
<g>
	<polygon style="fill:#41589C;" points="251.998,255.19 348.681,158.505 251.998,61.822 	"/>
	<polygon style="fill:#41589C;" points="61.827,344.002 112.506,394.681 163.185,344.002 	"/>
</g>
<g>
	<rect x="10.009" y="10" style="fill:#FFFFFF;" width="241.993" height="334"/>
	<circle style="fill:#FFFFFF;" cx="367.969" cy="350.81" r="99.997"/>
</g>
<path style="fill:#A0E070;" d="M413.436,305.32l24.181-24.181l1.118-0.981c-18.1-18.128-43.122-29.345-70.764-29.345
	c-0.027,0-0.055,0.001-0.082,0.001v35.684c0.028,0,0.055-0.002,0.082-0.002C385.726,286.496,401.799,293.689,413.436,305.32z"/>
<g>
	<path style="fill:#52BFEF;" d="M322.508,396.298l-24.181,24.181l-1.118,0.981c18.1,18.128,43.122,29.345,70.764,29.345
		c0.027,0,0.055-0.001,0.082-0.001v-35.684c-0.028,0-0.055,0.002-0.082,0.002C350.219,415.123,334.146,407.929,322.508,396.298z"/>
	<path style="fill:#52BFEF;" d="M413.461,396.273l24.181,24.181l0.981,1.118c18.128-18.1,29.345-43.122,29.345-70.764
		c0-0.027-0.001-0.055-0.001-0.082h-35.684c0,0.028,0.002,0.055,0.002,0.082C432.286,368.562,425.093,384.636,413.461,396.273z"/>
	<path style="fill:#52BFEF;" d="M322.483,305.345l-24.181-24.181l-0.981-1.118c-18.128,18.1-29.345,43.122-29.345,70.764
		c0,0.027,0.001,0.055,0.001,0.082h35.684c0-0.028-0.002-0.055-0.002-0.082C303.659,333.056,310.852,316.983,322.483,305.345z"/>
	<circle style="fill:#52BFEF;" cx="367.969" cy="350.81" r="64.318"/>
</g>
<circle style="fill:#FFFFFF;" cx="401.998" cy="299.321" r="99.997"/>
<g>
	<path style="fill:#30AA5B;" d="M447.461,253.831l24.181-24.181l1.118-0.981c-18.1-18.128-43.122-29.345-70.764-29.345
		c-0.027,0-0.055,0.001-0.082,0.001v35.684c0.028,0,0.055-0.002,0.082-0.002C419.75,235.005,435.824,242.199,447.461,253.831z"/>
	<path style="fill:#30AA5B;" d="M356.533,344.808l-24.181,24.181l-1.118,0.981c18.1,18.128,43.122,29.345,70.764,29.345
		c0.027,0,0.055-0.001,0.082-0.001V363.63c-0.028,0-0.055,0.002-0.082,0.002C384.243,363.633,368.171,356.44,356.533,344.808z"/>
	<path style="fill:#30AA5B;" d="M447.486,344.783l24.181,24.181l0.981,1.118c18.128-18.1,29.345-43.122,29.345-70.764
		c0-0.027-0.001-0.055-0.001-0.082h-35.684c0,0.028,0.002,0.055,0.002,0.082C466.311,317.073,459.117,333.145,447.486,344.783z"/>
	<path style="fill:#30AA5B;" d="M356.508,253.856l-24.181-24.181l-0.981-1.118c-18.128,18.1-29.345,43.122-29.345,70.764
		c0,0.027,0.001,0.055,0.001,0.082h35.684c0-0.028-0.002-0.055-0.002-0.082C337.684,281.566,344.877,265.493,356.508,253.856z"/>
	<circle style="fill:#30AA5B;" cx="401.998" cy="299.321" r="64.318"/>
</g>
<path style="fill:#F75857;" d="M168.583,118.103c-5.55-0.977-11.33-0.548-16.712,1.216c-5.221,1.712-9.931,4.623-13.776,8.459
	c-1.602,2.044-4.627,6.081-6.181,8.16c-0.489,0.655-1.459,0.655-1.949,0.001c-1.603-2.142-4.785-6.38-6.46-8.53
	c-7.908-7.68-19.1-11.26-30.045-9.37c-1.634,0.292-3.257,0.696-4.841,1.212c-13.786,4.528-23.289,17.319-23.608,31.835
	c-0.227,9.559,3.601,18.846,10.528,25.522c0.248,0.215,44.053,48.531,53.584,59.044c0.976,1.076,2.66,1.077,3.637,0.003
	c9.547-10.5,53.424-58.753,53.698-58.99c6.913-6.635,10.743-15.912,10.532-25.491C196.64,134.823,184.685,120.919,168.583,118.103z"
	/>
<path d="M71.395,92.069c1.612,3.818,5.317,6.113,9.217,6.112c1.297,0,2.616-0.254,3.886-0.79c5.088-2.148,7.471-8.015,5.322-13.103
	L69.942,37.218c-1.564-3.703-5.193-6.11-9.212-6.11c-4.02,0-7.649,2.407-9.212,6.11L31.643,84.29
	c-2.148,5.088,0.235,10.954,5.323,13.103c5.086,2.148,10.954-0.234,13.102-5.322l10.665-25.255L71.395,92.069z"/>
<path d="M251.998,144.746c5.523,0,10-4.477,10-10v-0.443c0-5.523-4.477-10-10-10c-5.523,0-10,4.477-10,10v0.443
	C241.998,140.268,246.475,144.746,251.998,144.746z"/>
<path d="M191.003,262.867c-2.149-5.088-8.014-7.471-13.103-5.322c-5.088,2.148-7.471,8.015-5.322,13.103l19.876,47.072
	c1.564,3.703,5.193,6.11,9.212,6.11c4.019,0,7.649-2.407,9.212-6.11l19.876-47.072c2.148-5.088-0.234-10.954-5.322-13.103
	c-5.087-2.147-10.954,0.235-13.103,5.322l-10.665,25.255L191.003,262.867z"/>
<path d="M511.994,299.319c0-60.652-49.345-109.997-109.997-109.997c-49.364,0-91.234,32.686-105.112,77.552
	c-16.187,13.765-27.804,31.575-33.883,51.368c-0.34,0.289-0.67,0.586-1.005,0.879v-58.032l94.255-94.255
	c3.905-3.905,3.905-10.237,0-14.143l-94.255-94.255V10c0-5.523-4.477-10-10-10H10.005c-5.523,0-10,4.477-10,10v334.002
	c0,5.523,4.477,10,10,10h48.437l47.251,47.251c1.953,1.953,4.512,2.929,7.071,2.929c2.559,0,5.119-0.976,7.071-2.929l47.251-47.251
	h68.194c-7.153,14.745-10.982,31.088-10.982,48.002c0,60.652,49.345,109.997,109.997,109.997c48.283,0,91.046-31.781,105.138-77.667
	c15.603-13.27,27.561-30.887,33.84-51.306C496.95,362.836,511.994,332.803,511.994,299.319z M244.872,412.151h16.681
	c1.767,12.726,6.797,24.417,14.228,34.199l-11.782,11.781C253.67,445.222,246.819,429.419,244.872,412.151z M295.404,360.808
	c1.767,12.726,6.797,24.417,14.228,34.199l-11.782,11.782c-10.329-12.91-17.179-28.712-19.126-45.981L295.404,360.808
	L295.404,360.808z M331.709,243.183l11.781,11.782c-7.493,9.859-12.542,21.66-14.272,34.504h-16.677
	C314.443,272.08,321.317,256.167,331.709,243.183z M491.453,289.468h-16.677c-1.731-12.853-6.787-24.66-14.288-34.524l11.781-11.781
	C482.67,256.151,489.55,272.071,491.453,289.468z M334.294,455.464c-22.209,0-41.293-13.617-49.357-32.937
	c13.1,15.147,30.259,26.687,49.766,32.927C334.567,455.456,334.431,455.464,334.294,455.464z M329.256,309.467
	c1.767,12.726,6.797,24.417,14.228,34.199l-11.782,11.782c-10.329-12.91-17.18-28.712-19.126-45.981L329.256,309.467
	L329.256,309.467z M345.841,369.592l11.781-11.781c9.804,7.456,21.529,12.498,34.293,14.259v16.68
	C374.608,386.811,358.772,379.946,345.841,369.592z M323.771,409.153c9.804,7.456,21.53,12.498,34.293,14.259v16.68
	c-17.306-1.938-33.143-8.803-46.075-19.156L323.771,409.153z M368.146,404.121c-22.208,0-41.293-13.616-49.357-32.936
	c13.1,15.147,30.257,26.687,49.764,32.926C368.417,404.113,368.282,404.121,368.146,404.121z M401.998,352.78
	c-29.478,0-53.459-23.982-53.459-53.459c0-29.478,23.982-53.46,53.459-53.46c29.477,0,53.459,23.982,53.459,53.46
	C455.457,328.797,431.475,352.78,401.998,352.78z M446.343,240.805c-9.841-7.476-21.615-12.52-34.429-14.258v-16.677
	c17.358,1.912,33.244,8.779,46.211,19.152L446.343,240.805z M391.915,226.568c-12.76,1.76-24.482,6.8-34.285,14.253l-11.781-11.781
	c12.93-10.351,28.763-17.212,46.066-19.15V226.568z M263.182,383.578c-0.73,2.823-1.286,5.686-1.675,8.574h-16.673
	c1.493-13.723,6.089-26.761,13.367-38.245C258.501,364.211,260.224,374.166,263.182,383.578z M289.919,460.495
	c9.804,7.456,21.53,12.498,34.293,14.259v16.68c-17.306-1.938-33.143-8.803-46.075-19.156L289.919,460.495z M344.211,474.783
	c12.48-1.706,24.363-6.613,34.447-14.262l11.761,11.761c-13.085,10.437-29.039,17.242-46.209,19.151v-16.651H344.211z
	 M378.063,440.091v-16.651c12.481-1.706,24.363-6.613,34.447-14.262l11.759,11.759C411.183,431.374,395.229,438.18,378.063,440.091z
	 M411.914,388.768v-16.677c12.818-1.739,24.595-6.784,34.438-14.264l11.781,11.781C445.165,379.986,429.277,386.856,411.914,388.768
	z M460.496,343.686c7.44-9.786,12.476-21.484,14.244-34.219h16.681c-1.948,17.277-8.805,33.087-19.142,46L460.496,343.686z
	 M292.052,302.561c0.3,10.306,2.022,20.26,4.981,29.674c-0.73,2.823-1.286,5.685-1.675,8.575h-16.673
	C280.178,327.083,284.773,314.045,292.052,302.561z M20.005,19.999h221.993v79.677c0,5.523,4.477,10,10,10c5.523,0,10-4.477,10-10
	V86.721l73.042,73.042l-73.042,73.042v-63.798c0-5.523-4.477-10-10-10c-5.523,0-10,4.477-10,10v164.995H20.005L20.005,19.999
	L20.005,19.999z M112.763,380.04l-26.038-26.038H138.8L112.763,380.04z M404.591,458.168l-2.823-2.823
	c2.266-0.731,4.506-1.525,6.711-2.398C407.244,454.738,405.946,456.478,404.591,458.168z M438.44,406.824l-2.782-2.782
	c2.237-0.721,4.445-1.504,6.617-2.362C441.057,403.443,439.777,405.158,438.44,406.824z"/>
<path d="M121.716,242.368c2.355,2.598,5.715,4.089,9.22,4.092c0.003,0,0.005,0,0.009,0c3.5,0,6.86-1.486,9.216-4.078
	c24.502-26.947,51.097-56.18,53.421-58.693c8.795-8.548,13.679-20.462,13.407-32.73c-0.454-21.103-15.876-39.062-36.672-42.705
	c-7.149-1.259-14.605-0.719-21.561,1.563c-6.643,2.179-12.771,5.941-17.721,10.882c-0.02,0.02-0.04,0.04-0.059,0.06
	c-0.161-0.18-0.328-0.355-0.501-0.523c-10.256-9.961-24.73-14.464-38.771-12.041c-2.096,0.375-4.174,0.896-6.202,1.556
	c-17.822,5.854-30.073,22.377-30.484,41.098c-0.292,12.251,4.585,24.177,13.386,32.767
	C70.974,186.409,102.91,221.624,121.716,242.368z M91.716,128.759c1.132-0.368,2.311-0.663,3.447-0.867
	c7.497-1.294,15.261,1.038,20.907,6.245c1.252,1.623,3.311,4.347,5.891,7.793c2.108,2.817,5.465,4.498,8.98,4.498
	c0.001,0,0.003,0,0.005,0c3.517-0.001,6.874-1.686,8.982-4.507c1.473-1.972,4.054-5.416,5.641-7.463
	c2.672-2.545,5.917-4.489,9.419-5.637c3.841-1.26,7.943-1.56,11.862-0.87c0.003,0,0.007,0.001,0.011,0.002
	c11.418,1.997,19.885,11.854,20.134,23.442c0.15,6.782-2.568,13.363-7.458,18.055l0.007,0.008c-1.23,1.258-7.14,7.738-48.59,53.322
	c-41.307-45.563-47.242-52.092-48.481-53.364l0.008-0.008c-4.908-4.73-7.631-11.322-7.47-18.102
	C75.236,141.028,81.96,131.964,91.716,128.759z"/>
<g>
</g>
<g>
</g>
<g>
</g>
<g>
</g>
<g>
</g>
<g>
</g>
<g>
</g>
<g>
</g>
<g>
</g>
<g>
</g>
<g>
</g>
<g>
</g>
<g>
</g>
<g>
</g>
<g>
</g>
</svg>
