<?xml version="1.0" encoding="iso-8859-1"?>
<!-- Generator: Adobe Illustrator 19.0.0, SVG Export Plug-In . SVG Version: 6.00 Build 0)  -->
<svg version="1.1" id="Capa_1" xmlns="http://www.w3.org/2000/svg" xmlns:xlink="http://www.w3.org/1999/xlink" x="0px" y="0px"
	 viewBox="0 0 512 512" style="enable-background:new 0 0 512 512;" xml:space="preserve">
<path style="fill:#C1386D;" d="M256,10C120.138,10,10,120.138,10,256s110.138,246,246,246s246-110.138,246-246S391.862,10,256,10z
	 M256,461c-113.218,0-205-91.782-205-205S142.782,51,256,51s205,91.782,205,205S369.218,461,256,461z"/>
<path style="fill:#38BCBD;" d="M256,111c-80.081,0-145,64.919-145,145s64.919,145,145,145s145-64.919,145-145S336.081,111,256,111z
	 M256,361c-57.99,0-105-47.01-105-105s47.01-105,105-105s105,47.01,105,105S313.99,361,256,361z"/>
<path style="fill:#C1386D;" d="M256,151c-57.99,0-105,47.01-105,105s47.01,105,105,105s105-47.01,105-105S313.99,151,256,151z"/>
<circle style="fill:#A9A99F;" cx="256" cy="256" r="20"/>
<g>
	<path style="fill:#FF82A4;" d="M111.002,256.124l-59.999,0.051c0.015,18.343,2.452,36.117,6.986,53.033l57.955-15.573
		C112.736,281.67,111.012,269.098,111.002,256.124z"/>
	<path style="fill:#FF82A4;" d="M183.526,381.612l-29.99,51.977c15.33,8.864,31.917,15.791,49.425,20.468l15.524-57.968
		C206.101,392.781,194.369,387.882,183.526,381.612z"/>
	<path style="fill:#FF82A4;" d="M130.451,328.581L78.5,358.615c9.003,15.54,19.984,29.792,32.606,42.403l42.408-42.444
		C144.586,349.654,136.819,339.573,130.451,328.581z"/>
	<path style="fill:#FF82A4;" d="M256,401v60c18.466,0,36.357-2.456,53.377-7.034l-15.623-57.941
		C281.716,399.263,269.062,401,256,401z"/>
	<path style="fill:#FF82A4;" d="M396.122,293.396c-3.297,12.387-8.186,24.124-14.447,34.972l52.003,29.945
		c8.851-15.337,15.763-31.931,20.425-49.443L396.122,293.396z"/>
	<path style="fill:#FF82A4;" d="M328.688,381.486l30.078,51.925c15.532-9.017,29.774-20.009,42.375-32.642l-42.48-42.371
		C349.748,367.333,339.674,375.108,328.688,381.486z"/>
	<path style="fill:#FF82A4;" d="M130.325,183.632l-52.003-29.945c-8.851,15.337-15.763,31.931-20.425,49.443l57.981,15.474
		C119.176,206.217,124.065,194.48,130.325,183.632z"/>
	<path style="fill:#FF82A4;" d="M328.474,130.388l29.99-51.977c-15.33-8.864-31.917-15.791-49.425-20.468l-15.524,57.968
		C305.899,119.219,317.631,124.118,328.474,130.388z"/>
	<path style="fill:#FF82A4;" d="M400.998,255.876l59.999-0.051c-0.015-18.343-2.452-36.117-6.986-53.033l-57.955,15.573
		C399.264,230.33,400.988,242.902,400.998,255.876z"/>
	<path style="fill:#FF82A4;" d="M381.549,183.419l51.951-30.034c-9.003-15.54-19.984-29.792-32.606-42.403l-42.408,42.444
		C367.414,162.346,375.181,172.427,381.549,183.419z"/>
	<path style="fill:#FF82A4;" d="M183.312,130.514l-30.078-51.925c-15.532,9.017-29.774,20.009-42.375,32.642l42.48,42.371
		C162.252,144.667,172.326,136.892,183.312,130.514z"/>
</g>
<g>
	<path style="fill:#60626E;" d="M153.514,358.574l-42.408,42.444c12.622,12.611,26.882,23.581,42.43,32.571l29.99-51.977
		C172.528,375.253,162.441,367.494,153.514,358.574z"/>
	<path style="fill:#60626E;" d="M115.943,293.635l-57.955,15.573c4.692,17.503,11.634,34.083,20.511,49.406l51.951-30.034
		C124.172,317.743,119.262,306.015,115.943,293.635z"/>
	<path style="fill:#60626E;" d="M111,256c0-12.932,1.702-25.464,4.878-37.396L57.897,203.13C53.406,219.999,51,237.717,51,256
		c0,0.059,0.002,0.117,0.002,0.175l59.999-0.051C111.001,256.082,111,256.041,111,256z"/>
	<path style="fill:#60626E;" d="M358.66,358.398l42.48,42.371c12.6-12.632,23.561-26.899,32.538-42.456l-52.003-29.945
		C375.325,339.371,367.573,349.463,358.66,358.398z"/>
	<path style="fill:#60626E;" d="M293.755,396.025l15.623,57.941c17.498-4.707,34.072-11.664,49.388-20.555l-30.078-51.925
		C317.854,387.775,306.131,392.695,293.755,396.025z"/>
	<path style="fill:#60626E;" d="M218.485,396.089l-15.524,57.968C219.88,458.577,237.656,461,256,461v-60
		C243.025,401,230.452,399.286,218.485,396.089z"/>
	<path style="fill:#60626E;" d="M396.057,218.365l57.955-15.573c-4.692-17.503-11.634-34.083-20.511-49.406L381.55,183.42
		C387.828,194.257,392.738,205.985,396.057,218.365z"/>
	<path style="fill:#60626E;" d="M358.486,153.426l42.408-42.444c-12.622-12.611-26.882-23.581-42.43-32.571l-29.99,51.977
		C339.472,136.747,349.559,144.506,358.486,153.426z"/>
	<path style="fill:#60626E;" d="M401,256c0,12.932-1.702,25.464-4.878,37.396l57.981,15.474C458.594,292.001,461,274.283,461,256
		c0-0.059-0.002-0.117-0.002-0.175l-59.999,0.051C400.999,255.918,401,255.959,401,256z"/>
	<path style="fill:#60626E;" d="M153.34,153.602l-42.48-42.371c-12.6,12.632-23.561,26.899-32.538,42.456l52.003,29.945
		C136.675,172.629,144.427,162.537,153.34,153.602z"/>
	<path style="fill:#60626E;" d="M218.245,115.975l-15.623-57.941c-17.498,4.707-34.072,11.664-49.388,20.555l30.078,51.925
		C194.146,124.225,205.869,119.305,218.245,115.975z"/>
</g>
<path style="fill:#38BCBD;" d="M293.515,115.911l15.524-57.968C292.12,53.423,274.344,51,256,51v60
	C268.975,111,281.548,112.714,293.515,115.911z"/>
<path style="fill:#FF82A4;" d="M256,51c-18.466,0-36.357,2.456-53.377,7.034l15.623,57.941C230.284,112.737,242.938,111,256,111V51z
	"/>
<circle style="fill:#E3FBFF;" cx="233" cy="79" r="23"/>
<g>
	<path style="fill:#231E1E;" d="M256,141c-63.411,0-115,51.589-115,115s51.589,115,115,115s115-51.589,115-115S319.411,141,256,141z
		 M256,351c-52.383,0-95-42.617-95-95s42.617-95,95-95s95,42.617,95,95S308.383,351,256,351z"/>
	<path style="fill:#231E1E;" d="M308.071,203.929c-3.906-3.905-10.236-3.905-14.143,0l-25.003,25.003
		c-3.917-1.878-8.3-2.932-12.926-2.932s-9.009,1.054-12.926,2.932l-25.003-25.003c-3.905-3.905-10.237-3.905-14.143,0
		s-3.905,10.237,0,14.143l25.003,25.003c-1.878,3.917-2.932,8.3-2.932,12.926c0,4.626,1.054,9.009,2.932,12.926l-25.003,25.003
		c-3.905,3.905-3.905,10.237,0,14.143c1.953,1.953,4.512,2.929,7.071,2.929s5.119-0.976,7.071-2.929l25.003-25.003
		c3.917,1.878,8.3,2.932,12.926,2.932c4.626,0,9.009-1.054,12.926-2.932l25.003,25.003C295.882,310.024,298.44,311,301,311
		s5.118-0.976,7.071-2.929c3.905-3.905,3.905-10.237,0-14.143l-25.003-25.003c1.878-3.917,2.932-8.3,2.932-12.926
		s-1.054-9.009-2.932-12.926l25.003-25.003C311.977,214.166,311.977,207.834,308.071,203.929z M256,266c-5.514,0-10-4.486-10-10
		s4.486-10,10-10s10,4.486,10,10S261.514,266,256,266z"/>
	<path style="fill:#231E1E;" d="M408.028,103.972C367.42,63.364,313.429,41,256,41s-111.42,22.364-152.028,62.972S41,198.571,41,256
		s22.364,111.42,62.972,152.028C144.58,448.636,198.571,471,256,471s111.42-22.364,152.028-62.972
		C448.636,367.42,471,313.429,471,256S448.636,144.58,408.028,103.972z M450.735,245.833l-40.066,0.034
		c-0.444-6.845-1.34-13.646-2.679-20.354l38.703-10.4C448.849,225.21,450.2,235.484,450.735,245.833z M441.474,195.807
		l-38.692,10.397c-2.22-6.52-4.864-12.845-7.897-18.944l34.678-20.048C434.259,176.35,438.251,185.906,441.474,195.807z
		 M419.607,149.866l-34.692,20.057c-3.808-5.693-7.989-11.13-12.514-16.274l28.318-28.343
		C407.655,132.981,413.973,141.196,419.607,149.866z M386.491,111.25l-28.315,28.339c-5.132-4.509-10.557-8.688-16.254-12.497
		l20.021-34.701C370.625,98.031,378.832,104.341,386.491,111.25z M316.047,70.433c9.846,3.182,19.423,7.148,28.634,11.857
		l-20.028,34.713c-6.142-3.037-12.48-5.662-18.973-7.857L316.047,70.433z M260.676,61.059c12.33,0.292,24.377,1.742,36.043,4.233
		l-10.37,38.725c-9.328-1.863-18.95-2.9-28.795-2.998C262.801,95.174,266,87.455,266,79C266,72.388,264.038,66.228,260.676,61.059z
		 M233,66c7.168,0,13,5.832,13,13s-5.832,13-13,13s-13-5.832-13-13S225.832,66,233,66z M201.649,68.717
		C200.584,71.955,200,75.41,200,79c0,11.501,5.918,21.642,14.865,27.551c-9.65,2.659-18.923,6.235-27.725,10.62l-20.076-34.658
		C178.034,76.866,189.6,72.219,201.649,68.717z M149.727,92.484l20.086,34.676c-5.688,3.812-11.124,7.999-16.264,12.527
		l-28.367-28.294C132.853,104.452,141.063,98.126,149.727,92.484z M111.129,125.623l28.373,28.3
		c-4.504,5.136-8.671,10.57-12.475,16.27L92.288,150.19C97.921,141.502,104.226,133.288,111.129,125.623z M82.213,167.467
		l34.73,19.999c-3.031,6.144-5.651,12.485-7.84,18.98L70.38,196.111C73.554,186.263,77.512,176.682,82.213,167.467z M65.273,215.448
		l38.709,10.331c-1.321,6.644-2.229,13.436-2.668,20.354l-40.044,0.034C61.796,235.69,63.149,225.43,65.273,215.448z
		 M61.265,266.167l40.065-0.034c0.445,6.845,1.341,13.647,2.68,20.354l-38.703,10.4C63.152,286.79,61.8,276.516,61.265,266.167z
		 M70.527,316.193l38.687-10.396c2.219,6.521,4.866,12.844,7.898,18.944l-34.678,20.048C77.74,335.65,73.749,326.094,70.527,316.193
		z M92.393,362.134l34.693-20.057c3.807,5.692,7.988,11.13,12.514,16.274l-28.319,28.343
		C104.344,379.019,98.027,370.804,92.393,362.134z M125.506,400.753l28.303-28.327c5.134,4.508,10.569,8.677,16.268,12.485
		l-20.02,34.699C141.375,413.97,133.165,407.662,125.506,400.753z M195.953,441.567c-9.846-3.182-19.423-7.148-28.634-11.857
		l20.028-34.713c6.141,3.037,12.482,5.663,18.973,7.857L195.953,441.567z M246,450.745c-10.478-0.535-20.736-1.91-30.717-4.043
		l10.367-38.712c6.642,1.325,13.434,2.227,20.35,2.671L246,450.745L246,450.745z M121,256c0-74.439,60.561-135,135-135
		s135,60.561,135,135s-60.561,135-135,135S121,330.439,121,256z M266,450.746V410.68c6.934-0.445,13.822-1.353,20.617-2.715
		l10.433,38.694C286.846,448.846,276.459,450.213,266,450.746z M316.351,441.419l-10.43-38.685
		c6.518-2.223,12.842-4.869,18.939-7.905l20.073,34.653C335.799,434.185,326.248,438.188,316.351,441.419z M362.273,419.516
		l-20.086-34.676c5.689-3.812,11.123-7.998,16.263-12.527l28.367,28.294C379.146,407.549,370.938,413.873,362.273,419.516z
		 M400.863,386.368l-28.365-28.293c4.505-5.136,8.684-10.562,12.488-16.262l34.693,19.977
		C414.046,370.477,407.764,378.704,400.863,386.368z M429.787,344.533l-34.73-19.999c3.032-6.144,5.651-12.485,7.84-18.98
		l38.724,10.334C438.446,325.738,434.488,335.318,429.787,344.533z M408.013,286.22c1.32-6.643,2.217-13.435,2.655-20.352
		l40.079-0.034c-0.526,10.478-1.885,20.739-4.009,30.721L408.013,286.22z"/>
	<path style="fill:#231E1E;" d="M437.02,74.98C388.667,26.628,324.38,0,256,0S123.333,26.628,74.98,74.98S0,187.62,0,256
		s26.628,132.667,74.98,181.02S187.62,512,256,512s132.667-26.628,181.02-74.98C485.371,388.667,512,324.38,512,256
		S485.371,123.333,437.02,74.98z M256,492C125.869,492,20,386.131,20,256S125.869,20,256,20s236,105.869,236,236
		S386.131,492,256,492z"/>
</g>
<g>
</g>
<g>
</g>
<g>
</g>
<g>
</g>
<g>
</g>
<g>
</g>
<g>
</g>
<g>
</g>
<g>
</g>
<g>
</g>
<g>
</g>
<g>
</g>
<g>
</g>
<g>
</g>
<g>
</g>
</svg>
