<svg id="Capa_1" enable-background="new 0 0 512 512" height="512" viewBox="0 0 512 512" width="512" xmlns="http://www.w3.org/2000/svg"><path d="m494.746 323.074c-23.247-8.717-64.723-24.272-90.906-34.096-21.673-8.123-44.391-12.241-67.531-12.241-23.347 0-46.068 4.665-67.528 13.863l-53.502 22.927c-17.677 7.571-36.378 11.41-55.59 11.41-19.981 0-39.861-2.785-59.086-8.276l-81.482-23.28c-7.894-2.255-16.838 2.181-19.092 11.871-.019.083-.029.17-.029.255v111.15c0 6.697 4.44 12.583 10.879 14.423l81.482 23.28c21.904 6.257 44.556 9.43 67.334 9.43 23.289 0 45.963-4.654 67.397-13.834l53.502-22.927c17.708-7.59 36.453-11.438 55.722-11.438 19.524 0 38.7 3.477 56.989 10.331 37.983 14.251 98.428 36.915 98.428 36.915 7.686 2.881 13.621-1.585 13.811-1.717 4.043-2.802 6.456-7.409 6.456-12.329v-100.816c0-11.086-6.874-21.008-17.254-24.901z" fill="#ff6379"/><path d="m336.317 415.591c19.524 0 38.7 3.477 56.989 10.331 37.983 14.251 98.428 36.915 98.428 36.915 7.686 2.881 13.621-1.585 13.811-1.717 4.043-2.802 6.456-7.409 6.456-12.329v-100.817c0-11.086-6.874-21.008-17.254-24.9-23.247-8.718-64.723-24.272-90.906-34.096-21.673-8.123-44.391-12.241-67.531-12.241-23.347 0-46.068 4.665-67.528 13.863l-12.782 5.478v141.492l24.595-10.54c17.708-7.59 36.453-11.439 55.722-11.439z" fill="#ff1f3e"/><path d="m393.306 303.457c-18.289-6.854-37.465-10.331-56.989-10.331-19.27 0-38.015 3.849-55.722 11.438l-53.502 22.927c-21.434 9.18-44.108 13.834-67.397 13.834-22.778 0-45.43-3.173-67.334-9.43l-92.362-26.388v-122.465c0-.085.01-.172.029-.255 2.253-9.69 11.198-14.126 19.092-11.871l81.482 23.28c19.225 5.492 39.104 8.276 59.086 8.276 19.212 0 37.913-3.839 55.59-11.41l53.502-22.927c21.46-9.198 44.181-13.863 67.528-13.863 23.14 0 45.858 4.118 67.531 12.241 26.183 9.824 67.66 25.379 90.906 34.096 10.38 3.892 17.254 13.814 17.254 24.9v122.465z" fill="#2d7dff"/><path d="m336.317 293.127c19.524 0 38.7 3.477 56.989 10.331l118.694 44.516v-122.464c0-11.086-6.874-21.008-17.254-24.9-23.247-8.717-64.723-24.272-90.906-34.096-21.673-8.123-44.391-12.241-67.531-12.241-23.347 0-46.068 4.665-67.528 13.863l-12.781 5.477v141.492l24.595-10.54c17.708-7.59 36.453-11.438 55.722-11.438z" fill="#0050ff"/><path d="m393.306 180.992c-18.289-6.854-37.465-10.331-56.989-10.331-19.27 0-38.015 3.849-55.722 11.438l-53.502 22.927c-21.434 9.18-44.108 13.834-67.397 13.834-22.778 0-45.43-3.173-67.334-9.43l-92.362-26.387v-106.076c0-.086.01-.172.029-.256 2.254-9.689 11.198-14.126 19.092-11.87l81.482 23.28c19.225 5.492 39.104 8.276 59.086 8.276 19.212 0 37.913-3.839 55.59-11.41l53.502-22.927c21.46-9.198 44.181-13.863 67.528-13.863 23.14 0 45.858 4.118 67.531 12.241 37.985 14.252 98.426 36.914 98.426 36.914 5.855 2.195 9.734 7.792 9.734 14.045v114.113z" fill="#f5f5f5"/><path d="m336.317 170.662c19.524 0 38.7 3.477 56.989 10.331l118.694 44.517v-114.113c0-6.253-3.879-11.85-9.734-14.045 0 0-60.441-22.662-98.426-36.914-21.673-8.123-44.391-12.241-67.531-12.241-23.347 0-46.068 4.665-67.528 13.863l-12.781 5.477v125.103l24.595-10.54c17.708-7.59 36.453-11.438 55.722-11.438z" fill="#e0e3ee"/></svg>